<svg width="42" height="42" viewBox="0 0 42 42" fill="none" xmlns="http://www.w3.org/2000/svg">
<path d="M24.9379 19.425V14.7C24.9379 13.6557 24.5231 12.6541 23.7847 11.9157C23.0462 11.1773 22.0447 10.7625 21.0004 10.7625C19.9561 10.7625 18.9546 11.1773 18.2162 11.9157C17.4778 12.6541 17.0629 13.6557 17.0629 14.7V19.425M28.9867 17.3323L30.3129 29.9323C30.3864 30.6306 29.8404 31.2375 29.1379 31.2375H12.8629C12.6973 31.2376 12.5334 31.2029 12.382 31.1357C12.2306 31.0684 12.095 30.97 11.9841 30.8469C11.8732 30.7238 11.7894 30.5788 11.7382 30.4212C11.687 30.2637 11.6696 30.0971 11.6869 29.9323L13.0141 17.3323C13.0448 17.042 13.1817 16.7734 13.3987 16.5781C13.6157 16.3829 13.8972 16.2749 14.1891 16.275H27.8118C28.4166 16.275 28.9237 16.7317 28.9867 17.3323ZM17.4567 19.425C17.4567 19.5294 17.4152 19.6295 17.3414 19.7034C17.2675 19.7772 17.1674 19.8187 17.0629 19.8187C16.9585 19.8187 16.8584 19.7772 16.7845 19.7034C16.7107 19.6295 16.6692 19.5294 16.6692 19.425C16.6692 19.3205 16.7107 19.2204 16.7845 19.1465C16.8584 19.0727 16.9585 19.0312 17.0629 19.0312C17.1674 19.0312 17.2675 19.0727 17.3414 19.1465C17.4152 19.2204 17.4567 19.3205 17.4567 19.425ZM25.3317 19.425C25.3317 19.5294 25.2902 19.6295 25.2164 19.7034C25.1425 19.7772 25.0424 19.8187 24.9379 19.8187C24.8335 19.8187 24.7334 19.7772 24.6595 19.7034C24.5857 19.6295 24.5442 19.5294 24.5442 19.425C24.5442 19.3205 24.5857 19.2204 24.6595 19.1465C24.7334 19.0727 24.8335 19.0312 24.9379 19.0312C25.0424 19.0312 25.1425 19.0727 25.2164 19.1465C25.2902 19.2204 25.3317 19.3205 25.3317 19.425Z" stroke="#151515" stroke-width="1.575" stroke-linecap="round" stroke-linejoin="round"/>
</svg>
